<?xml version="1.0" encoding="UTF-8" standalone="no"?>
<!-- Generator: Adobe Illustrator 22.0.0, SVG Export Plug-In . SVG Version: 6.00 Build 0)  -->

<svg
   xmlns:dc="http://purl.org/dc/elements/1.1/"
   xmlns:cc="http://creativecommons.org/ns#"
   xmlns:rdf="http://www.w3.org/1999/02/22-rdf-syntax-ns#"
   xmlns:svg="http://www.w3.org/2000/svg"
   xmlns="http://www.w3.org/2000/svg"
   xmlns:sodipodi="http://sodipodi.sourceforge.net/DTD/sodipodi-0.dtd"
   xmlns:inkscape="http://www.inkscape.org/namespaces/inkscape"
   version="1.1"
   id="Layer_1"
   x="0px"
   y="0px"
   viewBox="0 0 348 348"
   style="enable-background:new 0 0 348 348;"
   xml:space="preserve"
   sodipodi:docname="Maze3.svg"
   inkscape:version="0.92.4 (5da689c313, 2019-01-14)"><metadata
   id="metadata4602"><rdf:RDF><cc:Work
       rdf:about=""><dc:format>image/svg+xml</dc:format><dc:type
         rdf:resource="http://purl.org/dc/dcmitype/StillImage" /></cc:Work></rdf:RDF></metadata><defs
   id="defs4600" /><sodipodi:namedview
   pagecolor="#ffffff"
   bordercolor="#666666"
   borderopacity="1"
   objecttolerance="10"
   gridtolerance="10"
   guidetolerance="10"
   inkscape:pageopacity="0"
   inkscape:pageshadow="2"
   inkscape:window-width="1366"
   inkscape:window-height="745"
   id="namedview4598"
   showgrid="false"
   inkscape:zoom="1.6609195"
   inkscape:cx="174"
   inkscape:cy="174"
   inkscape:window-x="-8"
   inkscape:window-y="-8"
   inkscape:window-maximized="1"
   inkscape:current-layer="Layer_1" />
<style
   type="text/css"
   id="style4561">
	.st0{fill:none;stroke:#000000;stroke-width:2;}
</style>
<path
   class="st0"
   d="M5.1,5.8H342v337.7H5.1L5.1,5.8z"
   id="path4563" />
<path
   class="st0"
   d="M282.7,40.6c0-8.4,7-15.2,15.6-15.2c4.1,0,8.1,1.6,11,4.4c2.9,2.8,4.6,6.7,4.6,10.7c0,8.4-7,15.2-15.6,15.2  C289.7,55.7,282.7,48.9,282.7,40.6L282.7,40.6z"
   id="path4565" />
<path
   class="st0"
   d="M61.5,62.3h224.2v224.7H61.5L61.5,62.3z"
   id="path4567" />
<polygon
   class="st0"
   points="173.5,31.6 147.9,49.5 199.2,49.5 "
   id="polygon4569" />
<polygon
   class="st0"
   points="173.5,317.6 199.2,299.7 147.9,299.7 "
   id="polygon4571" />
<polygon
   class="st0"
   points="32.2,174 50.2,199.6 50.2,148.4 "
   id="polygon4573" />
<polygon
   class="st0"
   points="316.2,174 298.3,148.4 298.3,199.6 "
   id="polygon4575" />
<path
   class="st0"
   d="M13.8,35.6c0-12.1,10-21.8,22.4-21.8c5.9,0,11.6,2.3,15.8,6.4c4.2,4.1,6.6,9.6,6.6,15.4  c0,12.1-10,21.8-22.4,21.8C23.9,57.4,13.8,47.6,13.8,35.6L13.8,35.6z"
   id="path4577" />
<path
   class="st0"
   d="M158.7,174.6c0-8.4,7-15.2,15.6-15.2c4.1,0,8.1,1.6,11,4.4c2.9,2.8,4.6,6.7,4.6,10.7c0,8.4-7,15.2-15.6,15.2  C165.6,189.8,158.7,183,158.7,174.6L158.7,174.6z"
   id="path4579" />
<path
   class="st0"
   d="M158.7,104.5c0-8.4,7-15.2,15.6-15.2c4.1,0,8.1,1.6,11,4.4c2.9,2.8,4.6,6.7,4.6,10.7c0,8.4-7,15.2-15.6,15.2  C165.6,119.7,158.7,112.9,158.7,104.5L158.7,104.5z"
   id="path4581"
   style="stroke-width:1.99937008;stroke-miterlimit:4;stroke-dasharray:none" />
<path
   class="st0"
   d="M158,244.7c0-8.4,7-15.2,15.6-15.2c4.1,0,8.1,1.6,11,4.4c2.9,2.8,4.6,6.7,4.6,10.7c0,8.4-7,15.2-15.6,15.2  C164.9,259.9,158,253.1,158,244.7L158,244.7z"
   id="path4583" />
<path
   class="st0"
   d="M88.9,174.6c0-8.4,7-15.2,15.6-15.2c4.1,0,8.1,1.6,11,4.4c2.9,2.8,4.6,6.7,4.6,10.7c0,8.4-7,15.2-15.6,15.2  C95.8,189.8,88.9,183,88.9,174.6L88.9,174.6z"
   id="path4585" />
<path
   class="st0"
   d="M88.9,104.5c0-8.4,7-15.2,15.6-15.2c4.1,0,8.1,1.6,11,4.4c2.9,2.8,4.6,6.7,4.6,10.7c0,8.4-7,15.2-15.6,15.2  C95.8,119.7,88.9,112.9,88.9,104.5L88.9,104.5z"
   id="path4587" />
<path
   class="st0"
   d="M88.2,244.7c0-8.4,7-15.2,15.6-15.2c4.1,0,8.1,1.6,11,4.4c2.9,2.8,4.6,6.7,4.6,10.7c0,8.4-7,15.2-15.6,15.2  C95.1,259.9,88.2,253.1,88.2,244.7L88.2,244.7z"
   id="path4589" />
<path
   class="st0"
   d="M228.5,174.6c0-8.4,7-15.2,15.6-15.2c4.1,0,8.1,1.6,11,4.4c2.9,2.8,4.6,6.7,4.6,10.7c0,8.4-7,15.2-15.6,15.2  C235.5,189.8,228.5,183,228.5,174.6L228.5,174.6z"
   id="path4591" />
<path
   class="st0"
   d="M228.5,104.5c0-8.4,7-15.2,15.6-15.2c4.1,0,8.1,1.6,11,4.4c2.9,2.8,4.6,6.7,4.6,10.7c0,8.4-7,15.2-15.6,15.2  C235.5,119.7,228.5,112.9,228.5,104.5L228.5,104.5z"
   id="path4593" />
<path
   class="st0"
   d="M227.8,244.7c0-8.4,7-15.2,15.6-15.2c4.1,0,8.1,1.6,11,4.4c2.9,2.8,4.6,6.7,4.6,10.7c0,8.4-7,15.2-15.6,15.2  C234.8,259.9,227.8,253.1,227.8,244.7L227.8,244.7z"
   id="path4595" />
<path
   inkscape:connector-curvature="0"
   class="st0"
   d="m 319.53434,331.44291 c 0,-4.27169 3.53032,-7.69611 7.90792,-7.69611 2.08289,0 4.09518,0.81198 5.57791,2.25941 1.48274,1.44743 2.33002,3.38911 2.33002,5.4367 0,4.27169 -3.53033,7.6961 -7.90793,7.6961 -4.34229,0 -7.90792,-3.45972 -7.90792,-7.6961 z"
   id="path4577-2"
   style="fill:none;stroke:#000000;stroke-width:1.9993701;stroke-miterlimit:4;stroke-dasharray:none" /><path
   inkscape:connector-curvature="0"
   class="st0"
   d="m 319.62149,312.73357 c 0,-4.27169 3.53032,-7.69611 7.90792,-7.69611 2.08289,0 4.09518,0.81198 5.57791,2.25941 1.48274,1.44743 2.33002,3.38911 2.33002,5.4367 0,4.27169 -3.53033,7.6961 -7.90793,7.6961 -4.34229,0 -7.90792,-3.45972 -7.90792,-7.6961 z"
   id="path4577-2-0"
   style="fill:none;stroke:#000000;stroke-width:1.9993701;stroke-miterlimit:4;stroke-dasharray:none" /><path
   inkscape:connector-curvature="0"
   class="st0"
   d="m 319.62149,292.73357 c 0,-4.27169 3.53032,-7.69611 7.90792,-7.69611 2.08289,0 4.09518,0.81198 5.57791,2.25941 1.48274,1.44743 2.33002,3.38911 2.33002,5.4367 0,4.27169 -3.53033,7.6961 -7.90793,7.6961 -4.34229,0 -7.90792,-3.45972 -7.90792,-7.6961 z"
   id="path4577-2-7"
   style="fill:none;stroke:#000000;stroke-width:1.9993701;stroke-miterlimit:4;stroke-dasharray:none" /></svg>